<svg id="Layer_1" data-name="Layer 1" xmlns="http://www.w3.org/2000/svg" viewBox="0 0 50 50"><defs><style>.cls-1{fill:#ffba00;}.cls-2{fill:#f56f02;}.cls-3{fill:#cb1f48;}.cls-4{fill:#645dac;}.cls-5{fill:#0087d2;}.cls-6{fill:#00b345;}.cls-7{fill:#fff;}</style></defs><path class="cls-1" d="M9.44,7.06V42.94a2.92,2.92,0,0,1-.32-.28,23.75,23.75,0,0,1,0-35.32A2.92,2.92,0,0,1,9.44,7.06Z"/><path class="cls-2" d="M17.31,2.53V47.47a2.3,2.3,0,0,1-.34-.12,23.34,23.34,0,0,1-7.53-4.41,2.92,2.92,0,0,1-.32-.28V7.34a2.92,2.92,0,0,1,.32-.28A23.34,23.34,0,0,1,17,2.65,2.3,2.3,0,0,1,17.31,2.53Z"/><path class="cls-3" d="M25.16,1.25v47.5h-.32a23.75,23.75,0,0,1-7.53-1.28,2.3,2.3,0,0,1-.34-.12V2.65a2.3,2.3,0,0,1,.34-.12,23.75,23.75,0,0,1,7.53-1.28Z"/><path class="cls-4" d="M33,2.65v44.7a2.3,2.3,0,0,1-.34.12,23.75,23.75,0,0,1-7.53,1.28h-.32V1.25h.32a23.75,23.75,0,0,1,7.53,1.28A2.3,2.3,0,0,1,33,2.65Z"/><path class="cls-5" d="M40.88,7.34V42.66c-.1.1-.21.19-.32.28A23.34,23.34,0,0,1,33,47.35a2.3,2.3,0,0,1-.34.12V2.53a2.3,2.3,0,0,1,.34.12,23.34,23.34,0,0,1,7.53,4.41C40.67,7.15,40.78,7.24,40.88,7.34Z"/><path class="cls-6" d="M48.75,25a23.7,23.7,0,0,1-7.87,17.66c-.1.1-.21.19-.32.28V7.06c.11.09.22.18.32.28A23.7,23.7,0,0,1,48.75,25Z"/><path class="cls-7" d="M25.18,45.07a20.39,20.39,0,0,1-13.51-5.15,1,1,0,0,1-.27-1.32,7.37,7.37,0,0,1,4.76-4.23c1.09-.36,2.22-.64,3.29-1A3.25,3.25,0,0,0,21.53,29c0-.15-.2-.27-.3-.4A18.34,18.34,0,0,1,20.06,27a14.64,14.64,0,0,0-1.43-2.47,2.25,2.25,0,0,1-.22-2.68,1.16,1.16,0,0,0,0-.86,8.51,8.51,0,0,1,.28-5.76,6,6,0,0,1,7.33-3.74,10.54,10.54,0,0,1,4.61,2.84c1.64,1.77,1.6,4.17,1,6.48a1.34,1.34,0,0,0,.09,1.27,2.75,2.75,0,0,1-.58,2.88,4.49,4.49,0,0,0-.65.94,21.13,21.13,0,0,1-1.46,2.43,3.26,3.26,0,0,0,.7,4.59,16.64,16.64,0,0,0,2.4,1c1.08.4,2.2.71,3.24,1.19a6.41,6.41,0,0,1,3.33,3.81,1.07,1.07,0,0,1-.23.93,19.82,19.82,0,0,1-11.3,5.16C26.48,45,25.75,45,25.18,45.07Z"/></svg>